<?xml version="1.0" encoding="UTF-8" standalone="no"?>
<!DOCTYPE svg PUBLIC "-//W3C//DTD SVG 1.1//EN" "http://www.w3.org/Graphics/SVG/1.1/DTD/svg11.dtd">
<svg width="100%" height="100%" viewBox="0 0 1344 1344" version="1.1" xmlns="http://www.w3.org/2000/svg" xmlns:xlink="http://www.w3.org/1999/xlink" xml:space="preserve" xmlns:serif="http://www.serif.com/" style="fill-rule:evenodd;clip-rule:evenodd;stroke-linejoin:round;stroke-miterlimit:2;">
    <path d="M673.24,0.001C1043.55,0.662 1344,301.521 1344,672C1344,1042.89 1042.89,1344 672,1344C301.113,1344 0,1042.89 0,672C0,301.15 301.053,0.06 671.846,0L672.154,0L673.24,0.001Z" style="fill:url(#_Linear1);"/>
    <g transform="matrix(1.04,0,0,1.04,200.009,1197.6)">
        <path d="M480,-80C425.333,-80 373.667,-90.5 325,-111.5C276.333,-132.5 233.833,-161.167 197.5,-197.5C161.167,-233.833 132.5,-276.333 111.5,-325C90.5,-373.667 80,-425.333 80,-480C80,-535.333 90.833,-587.333 112.5,-636C134.167,-684.667 163.5,-727 200.5,-763C237.5,-799 280.667,-827.5 330,-848.5C379.333,-869.5 432,-880 488,-880C541.333,-880 591.667,-870.833 639,-852.5C686.333,-834.167 727.833,-808.833 763.5,-776.5C799.167,-744.167 827.5,-705.833 848.5,-661.5C869.5,-617.167 880,-569.333 880,-518C880,-441.333 856.667,-382.5 810,-341.5C763.333,-300.5 706.667,-280 640,-280L566,-280C560,-280 555.833,-278.333 553.5,-275C551.167,-271.667 550,-268 550,-264C550,-256 555,-244.5 565,-229.5C575,-214.5 580,-197.333 580,-178C580,-144.667 570.833,-120 552.5,-104C534.167,-88 510,-80 480,-80ZM260,-440C277.333,-440 291.667,-445.667 303,-457C314.333,-468.333 320,-482.667 320,-500C320,-517.333 314.333,-531.667 303,-543C291.667,-554.333 277.333,-560 260,-560C242.667,-560 228.333,-554.333 217,-543C205.667,-531.667 200,-517.333 200,-500C200,-482.667 205.667,-468.333 217,-457C228.333,-445.667 242.667,-440 260,-440ZM380,-600C397.333,-600 411.667,-605.667 423,-617C434.333,-628.333 440,-642.667 440,-660C440,-677.333 434.333,-691.667 423,-703C411.667,-714.333 397.333,-720 380,-720C362.667,-720 348.333,-714.333 337,-703C325.667,-691.667 320,-677.333 320,-660C320,-642.667 325.667,-628.333 337,-617C348.333,-605.667 362.667,-600 380,-600ZM580,-600C597.333,-600 611.667,-605.667 623,-617C634.333,-628.333 640,-642.667 640,-660C640,-677.333 634.333,-691.667 623,-703C611.667,-714.333 597.333,-720 580,-720C562.667,-720 548.333,-714.333 537,-703C525.667,-691.667 520,-677.333 520,-660C520,-642.667 525.667,-628.333 537,-617C548.333,-605.667 562.667,-600 580,-600ZM700,-440C717.333,-440 731.667,-445.667 743,-457C754.333,-468.333 760,-482.667 760,-500C760,-517.333 754.333,-531.667 743,-543C731.667,-554.333 717.333,-560 700,-560C682.667,-560 668.333,-554.333 657,-543C645.667,-531.667 640,-517.333 640,-500C640,-482.667 645.667,-468.333 657,-457C668.333,-445.667 682.667,-440 700,-440Z" style="fill:white;fill-rule:nonzero;"/>
    </g>
    <defs>
        <linearGradient id="_Linear1" x1="0" y1="0" x2="1" y2="0" gradientUnits="userSpaceOnUse" gradientTransform="matrix(1180.66,-1344,1344,1180.66,163.341,1344)"><stop offset="0" style="stop-color:rgb(0,130,201);stop-opacity:1"/><stop offset="1" style="stop-color:rgb(28,175,255);stop-opacity:1"/></linearGradient>
    </defs>
</svg>
